0
SECTION
2
HEADER
9
$INSUNITS
70
4
0
ENDSEC
0
SECTION
2
TABLES
0
TABLE
2
LTYPE
0
LTYPE
72
65
70
64
2
CONTINUOUS
3
______
73
0
40
0
0
ENDTAB
0
TABLE
2
LAYER
0
ENDTAB
0
ENDSEC
0
SECTION
2
ENTITIES
0
LINE
8
0
10
30.75
20
-179.25
11
49.25
21
-179.25
0
LINE
8
0
10
49.25
20
-179.25
11
49.25
21
-160.75
0
LINE
8
0
10
49.25
20
-160.75
11
30.75
21
-160.75
0
LINE
8
0
10
30.75
20
-160.75
11
30.75
21
-179.25
0
LINE
8
0
10
30.75
20
-160.25
11
49.25
21
-160.25
0
LINE
8
0
10
49.25
20
-160.25
11
49.25
21
-141.75
0
LINE
8
0
10
49.25
20
-141.75
11
30.75
21
-141.75
0
LINE
8
0
10
30.75
20
-141.75
11
30.75
21
-160.25
0
LINE
8
0
10
30.75
20
-141.25
11
49.25
21
-141.25
0
LINE
8
0
10
49.25
20
-141.25
11
49.25
21
-122.75
0
LINE
8
0
10
49.25
20
-122.75
11
30.75
21
-122.75
0
LINE
8
0
10
30.75
20
-122.75
11
30.75
21
-141.25
0
LINE
8
0
10
30.75
20
-122.25
11
49.25
21
-122.25
0
LINE
8
0
10
49.25
20
-122.25
11
49.25
21
-103.75
0
LINE
8
0
10
49.25
20
-103.75
11
30.75
21
-103.75
0
LINE
8
0
10
30.75
20
-103.75
11
30.75
21
-122.25
0
LINE
8
0
10
30.75
20
-103.25
11
49.25
21
-103.25
0
LINE
8
0
10
49.25
20
-103.25
11
49.25
21
-84.75
0
LINE
8
0
10
49.25
20
-84.75
11
30.75
21
-84.75
0
LINE
8
0
10
30.75
20
-84.75
11
30.75
21
-103.25
0
LINE
8
0
10
30.75
20
-84.25
11
49.25
21
-84.25
0
LINE
8
0
10
49.25
20
-84.25
11
49.25
21
-65.75
0
LINE
8
0
10
49.25
20
-65.75
11
30.75
21
-65.75
0
LINE
8
0
10
30.75
20
-65.75
11
30.75
21
-84.25
0
LINE
8
0
10
49.75
20
-179.25
11
68.25
21
-179.25
0
LINE
8
0
10
68.25
20
-179.25
11
68.25
21
-160.75
0
LINE
8
0
10
68.25
20
-160.75
11
49.75
21
-160.75
0
LINE
8
0
10
49.75
20
-160.75
11
49.75
21
-179.25
0
LINE
8
0
10
49.75
20
-160.25
11
68.25
21
-160.25
0
LINE
8
0
10
68.25
20
-160.25
11
68.25
21
-141.75
0
LINE
8
0
10
68.25
20
-141.75
11
49.75
21
-141.75
0
LINE
8
0
10
49.75
20
-141.75
11
49.75
21
-160.25
0
LINE
8
0
10
49.75
20
-141.25
11
68.25
21
-141.25
0
LINE
8
0
10
68.25
20
-141.25
11
68.25
21
-122.75
0
LINE
8
0
10
68.25
20
-122.75
11
49.75
21
-122.75
0
LINE
8
0
10
49.75
20
-122.75
11
49.75
21
-141.25
0
LINE
8
0
10
49.75
20
-122.25
11
68.25
21
-122.25
0
LINE
8
0
10
68.25
20
-122.25
11
68.25
21
-103.75
0
LINE
8
0
10
68.25
20
-103.75
11
49.75
21
-103.75
0
LINE
8
0
10
49.75
20
-103.75
11
49.75
21
-122.25
0
LINE
8
0
10
49.75
20
-103.25
11
68.25
21
-103.25
0
LINE
8
0
10
68.25
20
-103.25
11
68.25
21
-84.75
0
LINE
8
0
10
68.25
20
-84.75
11
49.75
21
-84.75
0
LINE
8
0
10
49.75
20
-84.75
11
49.75
21
-103.25
0
LINE
8
0
10
49.75
20
-84.25
11
68.25
21
-84.25
0
LINE
8
0
10
68.25
20
-84.25
11
68.25
21
-65.75
0
LINE
8
0
10
68.25
20
-65.75
11
49.75
21
-65.75
0
LINE
8
0
10
49.75
20
-65.75
11
49.75
21
-84.25
0
LINE
8
0
10
68.75
20
-179.25
11
87.25
21
-179.25
0
LINE
8
0
10
87.25
20
-179.25
11
87.25
21
-160.75
0
LINE
8
0
10
87.25
20
-160.75
11
68.75
21
-160.75
0
LINE
8
0
10
68.75
20
-160.75
11
68.75
21
-179.25
0
LINE
8
0
10
68.75
20
-160.25
11
87.25
21
-160.25
0
LINE
8
0
10
87.25
20
-160.25
11
87.25
21
-141.75
0
LINE
8
0
10
87.25
20
-141.75
11
68.75
21
-141.75
0
LINE
8
0
10
68.75
20
-141.75
11
68.75
21
-160.25
0
LINE
8
0
10
68.75
20
-141.25
11
87.25
21
-141.25
0
LINE
8
0
10
87.25
20
-141.25
11
87.25
21
-122.75
0
LINE
8
0
10
87.25
20
-122.75
11
68.75
21
-122.75
0
LINE
8
0
10
68.75
20
-122.75
11
68.75
21
-141.25
0
LINE
8
0
10
68.75
20
-122.25
11
87.25
21
-122.25
0
LINE
8
0
10
87.25
20
-122.25
11
87.25
21
-103.75
0
LINE
8
0
10
87.25
20
-103.75
11
68.75
21
-103.75
0
LINE
8
0
10
68.75
20
-103.75
11
68.75
21
-122.25
0
LINE
8
0
10
68.75
20
-103.25
11
87.25
21
-103.25
0
LINE
8
0
10
87.25
20
-103.25
11
87.25
21
-84.75
0
LINE
8
0
10
87.25
20
-84.75
11
68.75
21
-84.75
0
LINE
8
0
10
68.75
20
-84.75
11
68.75
21
-103.25
0
LINE
8
0
10
68.75
20
-84.25
11
87.25
21
-84.25
0
LINE
8
0
10
87.25
20
-84.25
11
87.25
21
-65.75
0
LINE
8
0
10
87.25
20
-65.75
11
68.75
21
-65.75
0
LINE
8
0
10
68.75
20
-65.75
11
68.75
21
-84.25
0
LINE
8
0
10
87.75
20
-160.25
11
106.25
21
-160.25
0
LINE
8
0
10
106.25
20
-160.25
11
106.25
21
-141.75
0
LINE
8
0
10
106.25
20
-141.75
11
87.75
21
-141.75
0
LINE
8
0
10
87.75
20
-141.75
11
87.75
21
-160.25
0
LINE
8
0
10
87.75
20
-141.25
11
106.25
21
-141.25
0
LINE
8
0
10
106.25
20
-141.25
11
106.25
21
-122.75
0
LINE
8
0
10
106.25
20
-122.75
11
87.75
21
-122.75
0
LINE
8
0
10
87.75
20
-122.75
11
87.75
21
-141.25
0
LINE
8
0
10
87.75
20
-122.25
11
106.25
21
-122.25
0
LINE
8
0
10
106.25
20
-122.25
11
106.25
21
-103.75
0
LINE
8
0
10
106.25
20
-103.75
11
87.75
21
-103.75
0
LINE
8
0
10
87.75
20
-103.75
11
87.75
21
-122.25
0
LINE
8
0
10
87.75
20
-103.25
11
106.25
21
-103.25
0
LINE
8
0
10
106.25
20
-103.25
11
106.25
21
-84.75
0
LINE
8
0
10
106.25
20
-84.75
11
87.75
21
-84.75
0
LINE
8
0
10
87.75
20
-84.75
11
87.75
21
-103.25
0
LINE
8
0
10
87.75
20
-84.25
11
106.25
21
-84.25
0
LINE
8
0
10
106.25
20
-84.25
11
106.25
21
-65.75
0
LINE
8
0
10
106.25
20
-65.75
11
87.75
21
-65.75
0
LINE
8
0
10
87.75
20
-65.75
11
87.75
21
-84.25
0
LINE
8
0
10
106.75
20
-160.25
11
125.25
21
-160.25
0
LINE
8
0
10
125.25
20
-160.25
11
125.25
21
-141.75
0
LINE
8
0
10
125.25
20
-141.75
11
106.75
21
-141.75
0
LINE
8
0
10
106.75
20
-141.75
11
106.75
21
-160.25
0
LINE
8
0
10
106.75
20
-141.25
11
125.25
21
-141.25
0
LINE
8
0
10
125.25
20
-141.25
11
125.25
21
-122.75
0
LINE
8
0
10
125.25
20
-122.75
11
106.75
21
-122.75
0
LINE
8
0
10
106.75
20
-122.75
11
106.75
21
-141.25
0
LINE
8
0
10
106.75
20
-122.25
11
125.25
21
-122.25
0
LINE
8
0
10
125.25
20
-122.25
11
125.25
21
-103.75
0
LINE
8
0
10
125.25
20
-103.75
11
106.75
21
-103.75
0
LINE
8
0
10
106.75
20
-103.75
11
106.75
21
-122.25
0
LINE
8
0
10
106.75
20
-103.25
11
125.25
21
-103.25
0
LINE
8
0
10
125.25
20
-103.25
11
125.25
21
-84.75
0
LINE
8
0
10
125.25
20
-84.75
11
106.75
21
-84.75
0
LINE
8
0
10
106.75
20
-84.75
11
106.75
21
-103.25
0
LINE
8
0
10
106.75
20
-84.25
11
125.25
21
-84.25
0
LINE
8
0
10
125.25
20
-84.25
11
125.25
21
-65.75
0
LINE
8
0
10
125.25
20
-65.75
11
106.75
21
-65.75
0
LINE
8
0
10
106.75
20
-65.75
11
106.75
21
-84.25
0
LINE
8
0
10
125.75
20
-160.25
11
144.25
21
-160.25
0
LINE
8
0
10
144.25
20
-160.25
11
144.25
21
-141.75
0
LINE
8
0
10
144.25
20
-141.75
11
125.75
21
-141.75
0
LINE
8
0
10
125.75
20
-141.75
11
125.75
21
-160.25
0
LINE
8
0
10
125.75
20
-141.25
11
144.25
21
-141.25
0
LINE
8
0
10
144.25
20
-141.25
11
144.25
21
-122.75
0
LINE
8
0
10
144.25
20
-122.75
11
125.75
21
-122.75
0
LINE
8
0
10
125.75
20
-122.75
11
125.75
21
-141.25
0
LINE
8
0
10
125.75
20
-122.25
11
144.25
21
-122.25
0
LINE
8
0
10
144.25
20
-122.25
11
144.25
21
-103.75
0
LINE
8
0
10
144.25
20
-103.75
11
125.75
21
-103.75
0
LINE
8
0
10
125.75
20
-103.75
11
125.75
21
-122.25
0
LINE
8
0
10
125.75
20
-103.25
11
144.25
21
-103.25
0
LINE
8
0
10
144.25
20
-103.25
11
144.25
21
-84.75
0
LINE
8
0
10
144.25
20
-84.75
11
125.75
21
-84.75
0
LINE
8
0
10
125.75
20
-84.75
11
125.75
21
-103.25
0
LINE
8
0
10
125.75
20
-84.25
11
144.25
21
-84.25
0
LINE
8
0
10
144.25
20
-84.25
11
144.25
21
-65.75
0
LINE
8
0
10
144.25
20
-65.75
11
125.75
21
-65.75
0
LINE
8
0
10
125.75
20
-65.75
11
125.75
21
-84.25
0
LINE
8
0
10
144.75
20
-160.25
11
163.25
21
-160.25
0
LINE
8
0
10
163.25
20
-160.25
11
163.25
21
-141.75
0
LINE
8
0
10
163.25
20
-141.75
11
144.75
21
-141.75
0
LINE
8
0
10
144.75
20
-141.75
11
144.75
21
-160.25
0
LINE
8
0
10
144.75
20
-141.25
11
163.25
21
-141.25
0
LINE
8
0
10
163.25
20
-141.25
11
163.25
21
-122.75
0
LINE
8
0
10
163.25
20
-122.75
11
144.75
21
-122.75
0
LINE
8
0
10
144.75
20
-122.75
11
144.75
21
-141.25
0
LINE
8
0
10
144.75
20
-122.25
11
163.25
21
-122.25
0
LINE
8
0
10
163.25
20
-122.25
11
163.25
21
-103.75
0
LINE
8
0
10
163.25
20
-103.75
11
144.75
21
-103.75
0
LINE
8
0
10
144.75
20
-103.75
11
144.75
21
-122.25
0
LINE
8
0
10
144.75
20
-103.25
11
163.25
21
-103.25
0
LINE
8
0
10
163.25
20
-103.25
11
163.25
21
-84.75
0
LINE
8
0
10
163.25
20
-84.75
11
144.75
21
-84.75
0
LINE
8
0
10
144.75
20
-84.75
11
144.75
21
-103.25
0
LINE
8
0
10
144.75
20
-84.25
11
163.25
21
-84.25
0
LINE
8
0
10
163.25
20
-84.25
11
163.25
21
-65.75
0
LINE
8
0
10
163.25
20
-65.75
11
144.75
21
-65.75
0
LINE
8
0
10
144.75
20
-65.75
11
144.75
21
-84.25
0
LINE
8
0
10
163.75
20
-160.25
11
182.25
21
-160.25
0
LINE
8
0
10
182.25
20
-160.25
11
182.25
21
-141.75
0
LINE
8
0
10
182.25
20
-141.75
11
163.75
21
-141.75
0
LINE
8
0
10
163.75
20
-141.75
11
163.75
21
-160.25
0
LINE
8
0
10
163.75
20
-141.25
11
182.25
21
-141.25
0
LINE
8
0
10
182.25
20
-141.25
11
182.25
21
-122.75
0
LINE
8
0
10
182.25
20
-122.75
11
163.75
21
-122.75
0
LINE
8
0
10
163.75
20
-122.75
11
163.75
21
-141.25
0
LINE
8
0
10
163.75
20
-122.25
11
182.25
21
-122.25
0
LINE
8
0
10
182.25
20
-122.25
11
182.25
21
-103.75
0
LINE
8
0
10
182.25
20
-103.75
11
163.75
21
-103.75
0
LINE
8
0
10
163.75
20
-103.75
11
163.75
21
-122.25
0
LINE
8
0
10
163.75
20
-103.25
11
182.25
21
-103.25
0
LINE
8
0
10
182.25
20
-103.25
11
182.25
21
-84.75
0
LINE
8
0
10
182.25
20
-84.75
11
163.75
21
-84.75
0
LINE
8
0
10
163.75
20
-84.75
11
163.75
21
-103.25
0
LINE
8
0
10
163.75
20
-84.25
11
182.25
21
-84.25
0
LINE
8
0
10
182.25
20
-84.25
11
182.25
21
-65.75
0
LINE
8
0
10
182.25
20
-65.75
11
163.75
21
-65.75
0
LINE
8
0
10
163.75
20
-65.75
11
163.75
21
-84.25
0
LINE
8
0
10
182.75
20
-160.25
11
201.25
21
-160.25
0
LINE
8
0
10
201.25
20
-160.25
11
201.25
21
-141.75
0
LINE
8
0
10
201.25
20
-141.75
11
182.75
21
-141.75
0
LINE
8
0
10
182.75
20
-141.75
11
182.75
21
-160.25
0
LINE
8
0
10
182.75
20
-141.25
11
201.25
21
-141.25
0
LINE
8
0
10
201.25
20
-141.25
11
201.25
21
-122.75
0
LINE
8
0
10
201.25
20
-122.75
11
182.75
21
-122.75
0
LINE
8
0
10
182.75
20
-122.75
11
182.75
21
-141.25
0
LINE
8
0
10
182.75
20
-122.25
11
201.25
21
-122.25
0
LINE
8
0
10
201.25
20
-122.25
11
201.25
21
-103.75
0
LINE
8
0
10
201.25
20
-103.75
11
182.75
21
-103.75
0
LINE
8
0
10
182.75
20
-103.75
11
182.75
21
-122.25
0
LINE
8
0
10
182.75
20
-103.25
11
201.25
21
-103.25
0
LINE
8
0
10
201.25
20
-103.25
11
201.25
21
-84.75
0
LINE
8
0
10
201.25
20
-84.75
11
182.75
21
-84.75
0
LINE
8
0
10
182.75
20
-84.75
11
182.75
21
-103.25
0
LINE
8
0
10
182.75
20
-84.25
11
201.25
21
-84.25
0
LINE
8
0
10
201.25
20
-84.25
11
201.25
21
-65.75
0
LINE
8
0
10
201.25
20
-65.75
11
182.75
21
-65.75
0
LINE
8
0
10
182.75
20
-65.75
11
182.75
21
-84.25
0
LINE
8
0
10
201.75
20
-179.25
11
220.25
21
-179.25
0
LINE
8
0
10
220.25
20
-179.25
11
220.25
21
-160.75
0
LINE
8
0
10
220.25
20
-160.75
11
201.75
21
-160.75
0
LINE
8
0
10
201.75
20
-160.75
11
201.75
21
-179.25
0
LINE
8
0
10
201.75
20
-160.25
11
220.25
21
-160.25
0
LINE
8
0
10
220.25
20
-160.25
11
220.25
21
-141.75
0
LINE
8
0
10
220.25
20
-141.75
11
201.75
21
-141.75
0
LINE
8
0
10
201.75
20
-141.75
11
201.75
21
-160.25
0
LINE
8
0
10
201.75
20
-141.25
11
220.25
21
-141.25
0
LINE
8
0
10
220.25
20
-141.25
11
220.25
21
-122.75
0
LINE
8
0
10
220.25
20
-122.75
11
201.75
21
-122.75
0
LINE
8
0
10
201.75
20
-122.75
11
201.75
21
-141.25
0
LINE
8
0
10
201.75
20
-122.25
11
220.25
21
-122.25
0
LINE
8
0
10
220.25
20
-122.25
11
220.25
21
-103.75
0
LINE
8
0
10
220.25
20
-103.75
11
201.75
21
-103.75
0
LINE
8
0
10
201.75
20
-103.75
11
201.75
21
-122.25
0
LINE
8
0
10
201.75
20
-103.25
11
220.25
21
-103.25
0
LINE
8
0
10
220.25
20
-103.25
11
220.25
21
-84.75
0
LINE
8
0
10
220.25
20
-84.75
11
201.75
21
-84.75
0
LINE
8
0
10
201.75
20
-84.75
11
201.75
21
-103.25
0
LINE
8
0
10
201.75
20
-84.25
11
220.25
21
-84.25
0
LINE
8
0
10
220.25
20
-84.25
11
220.25
21
-65.75
0
LINE
8
0
10
220.25
20
-65.75
11
201.75
21
-65.75
0
LINE
8
0
10
201.75
20
-65.75
11
201.75
21
-84.25
0
LINE
8
0
10
220.75
20
-179.25
11
239.25
21
-179.25
0
LINE
8
0
10
239.25
20
-179.25
11
239.25
21
-160.75
0
LINE
8
0
10
239.25
20
-160.75
11
220.75
21
-160.75
0
LINE
8
0
10
220.75
20
-160.75
11
220.75
21
-179.25
0
LINE
8
0
10
220.75
20
-160.25
11
239.25
21
-160.25
0
LINE
8
0
10
239.25
20
-160.25
11
239.25
21
-141.75
0
LINE
8
0
10
239.25
20
-141.75
11
220.75
21
-141.75
0
LINE
8
0
10
220.75
20
-141.75
11
220.75
21
-160.25
0
LINE
8
0
10
220.75
20
-141.25
11
239.25
21
-141.25
0
LINE
8
0
10
239.25
20
-141.25
11
239.25
21
-122.75
0
LINE
8
0
10
239.25
20
-122.75
11
220.75
21
-122.75
0
LINE
8
0
10
220.75
20
-122.75
11
220.75
21
-141.25
0
LINE
8
0
10
220.75
20
-122.25
11
239.25
21
-122.25
0
LINE
8
0
10
239.25
20
-122.25
11
239.25
21
-103.75
0
LINE
8
0
10
239.25
20
-103.75
11
220.75
21
-103.75
0
LINE
8
0
10
220.75
20
-103.75
11
220.75
21
-122.25
0
LINE
8
0
10
220.75
20
-103.25
11
239.25
21
-103.25
0
LINE
8
0
10
239.25
20
-103.25
11
239.25
21
-84.75
0
LINE
8
0
10
239.25
20
-84.75
11
220.75
21
-84.75
0
LINE
8
0
10
220.75
20
-84.75
11
220.75
21
-103.25
0
LINE
8
0
10
220.75
20
-84.25
11
239.25
21
-84.25
0
LINE
8
0
10
239.25
20
-84.25
11
239.25
21
-65.75
0
LINE
8
0
10
239.25
20
-65.75
11
220.75
21
-65.75
0
LINE
8
0
10
220.75
20
-65.75
11
220.75
21
-84.25
0
LINE
8
0
10
239.75
20
-179.25
11
258.25
21
-179.25
0
LINE
8
0
10
258.25
20
-179.25
11
258.25
21
-160.75
0
LINE
8
0
10
258.25
20
-160.75
11
239.75
21
-160.75
0
LINE
8
0
10
239.75
20
-160.75
11
239.75
21
-179.25
0
LINE
8
0
10
239.75
20
-160.25
11
258.25
21
-160.25
0
LINE
8
0
10
258.25
20
-160.25
11
258.25
21
-141.75
0
LINE
8
0
10
258.25
20
-141.75
11
239.75
21
-141.75
0
LINE
8
0
10
239.75
20
-141.75
11
239.75
21
-160.25
0
LINE
8
0
10
239.75
20
-141.25
11
258.25
21
-141.25
0
LINE
8
0
10
258.25
20
-141.25
11
258.25
21
-122.75
0
LINE
8
0
10
258.25
20
-122.75
11
239.75
21
-122.75
0
LINE
8
0
10
239.75
20
-122.75
11
239.75
21
-141.25
0
LINE
8
0
10
239.75
20
-122.25
11
258.25
21
-122.25
0
LINE
8
0
10
258.25
20
-122.25
11
258.25
21
-103.75
0
LINE
8
0
10
258.25
20
-103.75
11
239.75
21
-103.75
0
LINE
8
0
10
239.75
20
-103.75
11
239.75
21
-122.25
0
LINE
8
0
10
239.75
20
-103.25
11
258.25
21
-103.25
0
LINE
8
0
10
258.25
20
-103.25
11
258.25
21
-84.75
0
LINE
8
0
10
258.25
20
-84.75
11
239.75
21
-84.75
0
LINE
8
0
10
239.75
20
-84.75
11
239.75
21
-103.25
0
LINE
8
0
10
239.75
20
-84.25
11
258.25
21
-84.25
0
LINE
8
0
10
258.25
20
-84.25
11
258.25
21
-65.75
0
LINE
8
0
10
258.25
20
-65.75
11
239.75
21
-65.75
0
LINE
8
0
10
239.75
20
-65.75
11
239.75
21
-84.25
0
LINE
8
0
10
258.75
20
-179.25
11
277.25
21
-179.25
0
LINE
8
0
10
277.25
20
-179.25
11
277.25
21
-160.75
0
LINE
8
0
10
277.25
20
-160.75
11
258.75
21
-160.75
0
LINE
8
0
10
258.75
20
-160.75
11
258.75
21
-179.25
0
LINE
8
0
10
258.75
20
-160.25
11
277.25
21
-160.25
0
LINE
8
0
10
277.25
20
-160.25
11
277.25
21
-141.75
0
LINE
8
0
10
277.25
20
-141.75
11
258.75
21
-141.75
0
LINE
8
0
10
258.75
20
-141.75
11
258.75
21
-160.25
0
LINE
8
0
10
258.75
20
-141.25
11
277.25
21
-141.25
0
LINE
8
0
10
277.25
20
-141.25
11
277.25
21
-122.75
0
LINE
8
0
10
277.25
20
-122.75
11
258.75
21
-122.75
0
LINE
8
0
10
258.75
20
-122.75
11
258.75
21
-141.25
0
LINE
8
0
10
258.75
20
-122.25
11
277.25
21
-122.25
0
LINE
8
0
10
277.25
20
-122.25
11
277.25
21
-103.75
0
LINE
8
0
10
277.25
20
-103.75
11
258.75
21
-103.75
0
LINE
8
0
10
258.75
20
-103.75
11
258.75
21
-122.25
0
LINE
8
0
10
258.75
20
-103.25
11
277.25
21
-103.25
0
LINE
8
0
10
277.25
20
-103.25
11
277.25
21
-84.75
0
LINE
8
0
10
277.25
20
-84.75
11
258.75
21
-84.75
0
LINE
8
0
10
258.75
20
-84.75
11
258.75
21
-103.25
0
LINE
8
0
10
258.75
20
-84.25
11
277.25
21
-84.25
0
LINE
8
0
10
277.25
20
-84.25
11
277.25
21
-65.75
0
LINE
8
0
10
277.25
20
-65.75
11
258.75
21
-65.75
0
LINE
8
0
10
258.75
20
-65.75
11
258.75
21
-84.25
0
LINE
8
0
10
277.75
20
-179.25
11
296.25
21
-179.25
0
LINE
8
0
10
296.25
20
-179.25
11
296.25
21
-160.75
0
LINE
8
0
10
296.25
20
-160.75
11
277.75
21
-160.75
0
LINE
8
0
10
277.75
20
-160.75
11
277.75
21
-179.25
0
LINE
8
0
10
277.75
20
-160.25
11
296.25
21
-160.25
0
LINE
8
0
10
296.25
20
-160.25
11
296.25
21
-141.75
0
LINE
8
0
10
296.25
20
-141.75
11
277.75
21
-141.75
0
LINE
8
0
10
277.75
20
-141.75
11
277.75
21
-160.25
0
LINE
8
0
10
277.75
20
-141.25
11
296.25
21
-141.25
0
LINE
8
0
10
296.25
20
-141.25
11
296.25
21
-122.75
0
LINE
8
0
10
296.25
20
-122.75
11
277.75
21
-122.75
0
LINE
8
0
10
277.75
20
-122.75
11
277.75
21
-141.25
0
LINE
8
0
10
277.75
20
-122.25
11
296.25
21
-122.25
0
LINE
8
0
10
296.25
20
-122.25
11
296.25
21
-103.75
0
LINE
8
0
10
296.25
20
-103.75
11
277.75
21
-103.75
0
LINE
8
0
10
277.75
20
-103.75
11
277.75
21
-122.25
0
LINE
8
0
10
277.75
20
-103.25
11
296.25
21
-103.25
0
LINE
8
0
10
296.25
20
-103.25
11
296.25
21
-84.75
0
LINE
8
0
10
296.25
20
-84.75
11
277.75
21
-84.75
0
LINE
8
0
10
277.75
20
-84.75
11
277.75
21
-103.25
0
LINE
8
0
10
277.75
20
-84.25
11
296.25
21
-84.25
0
LINE
8
0
10
296.25
20
-84.25
11
296.25
21
-65.75
0
LINE
8
0
10
296.25
20
-65.75
11
277.75
21
-65.75
0
LINE
8
0
10
277.75
20
-65.75
11
277.75
21
-84.25
0
LINE
8
0
10
296.75
20
-179.25
11
315.25
21
-179.25
0
LINE
8
0
10
315.25
20
-179.25
11
315.25
21
-160.75
0
LINE
8
0
10
315.25
20
-160.75
11
296.75
21
-160.75
0
LINE
8
0
10
296.75
20
-160.75
11
296.75
21
-179.25
0
LINE
8
0
10
296.75
20
-160.25
11
315.25
21
-160.25
0
LINE
8
0
10
315.25
20
-160.25
11
315.25
21
-141.75
0
LINE
8
0
10
315.25
20
-141.75
11
296.75
21
-141.75
0
LINE
8
0
10
296.75
20
-141.75
11
296.75
21
-160.25
0
LINE
8
0
10
296.75
20
-141.25
11
315.25
21
-141.25
0
LINE
8
0
10
315.25
20
-141.25
11
315.25
21
-122.75
0
LINE
8
0
10
315.25
20
-122.75
11
296.75
21
-122.75
0
LINE
8
0
10
296.75
20
-122.75
11
296.75
21
-141.25
0
LINE
8
0
10
296.75
20
-122.25
11
315.25
21
-122.25
0
LINE
8
0
10
315.25
20
-122.25
11
315.25
21
-103.75
0
LINE
8
0
10
315.25
20
-103.75
11
296.75
21
-103.75
0
LINE
8
0
10
296.75
20
-103.75
11
296.75
21
-122.25
0
LINE
8
0
10
296.75
20
-103.25
11
315.25
21
-103.25
0
LINE
8
0
10
315.25
20
-103.25
11
315.25
21
-84.75
0
LINE
8
0
10
315.25
20
-84.75
11
296.75
21
-84.75
0
LINE
8
0
10
296.75
20
-84.75
11
296.75
21
-103.25
0
LINE
8
0
10
296.75
20
-84.25
11
315.25
21
-84.25
0
LINE
8
0
10
315.25
20
-84.25
11
315.25
21
-65.75
0
LINE
8
0
10
315.25
20
-65.75
11
296.75
21
-65.75
0
LINE
8
0
10
296.75
20
-65.75
11
296.75
21
-84.25
0
LINE
8
0
10
315.75
20
-141.25
11
334.25
21
-141.25
0
LINE
8
0
10
334.25
20
-141.25
11
334.25
21
-122.75
0
LINE
8
0
10
334.25
20
-122.75
11
315.75
21
-122.75
0
LINE
8
0
10
315.75
20
-122.75
11
315.75
21
-141.25
0
LINE
8
0
10
315.75
20
-122.25
11
334.25
21
-122.25
0
LINE
8
0
10
334.25
20
-122.25
11
334.25
21
-103.75
0
LINE
8
0
10
334.25
20
-103.75
11
315.75
21
-103.75
0
LINE
8
0
10
315.75
20
-103.75
11
315.75
21
-122.25
0
LINE
8
0
10
315.75
20
-103.25
11
334.25
21
-103.25
0
LINE
8
0
10
334.25
20
-103.25
11
334.25
21
-84.75
0
LINE
8
0
10
334.25
20
-84.75
11
315.75
21
-84.75
0
LINE
8
0
10
315.75
20
-84.75
11
315.75
21
-103.25
0
LINE
8
0
10
315.75
20
-84.25
11
334.25
21
-84.25
0
LINE
8
0
10
334.25
20
-84.25
11
334.25
21
-65.75
0
LINE
8
0
10
334.25
20
-65.75
11
315.75
21
-65.75
0
LINE
8
0
10
315.75
20
-65.75
11
315.75
21
-84.25
0
LINE
8
0
10
334.75
20
-141.25
11
353.25
21
-141.25
0
LINE
8
0
10
353.25
20
-141.25
11
353.25
21
-122.75
0
LINE
8
0
10
353.25
20
-122.75
11
334.75
21
-122.75
0
LINE
8
0
10
334.75
20
-122.75
11
334.75
21
-141.25
0
LINE
8
0
10
334.75
20
-122.25
11
353.25
21
-122.25
0
LINE
8
0
10
353.25
20
-122.25
11
353.25
21
-103.75
0
LINE
8
0
10
353.25
20
-103.75
11
334.75
21
-103.75
0
LINE
8
0
10
334.75
20
-103.75
11
334.75
21
-122.25
0
LINE
8
0
10
334.75
20
-103.25
11
353.25
21
-103.25
0
LINE
8
0
10
353.25
20
-103.25
11
353.25
21
-84.75
0
LINE
8
0
10
353.25
20
-84.75
11
334.75
21
-84.75
0
LINE
8
0
10
334.75
20
-84.75
11
334.75
21
-103.25
0
LINE
8
0
10
334.75
20
-84.25
11
353.25
21
-84.25
0
LINE
8
0
10
353.25
20
-84.25
11
353.25
21
-65.75
0
LINE
8
0
10
353.25
20
-65.75
11
334.75
21
-65.75
0
LINE
8
0
10
334.75
20
-65.75
11
334.75
21
-84.25
0
LINE
8
0
10
353.75
20
-160.25
11
372.25
21
-160.25
0
LINE
8
0
10
372.25
20
-160.25
11
372.25
21
-141.75
0
LINE
8
0
10
372.25
20
-141.75
11
353.75
21
-141.75
0
LINE
8
0
10
353.75
20
-141.75
11
353.75
21
-160.25
0
LINE
8
0
10
353.75
20
-141.25
11
372.25
21
-141.25
0
LINE
8
0
10
372.25
20
-141.25
11
372.25
21
-122.75
0
LINE
8
0
10
372.25
20
-122.75
11
353.75
21
-122.75
0
LINE
8
0
10
353.75
20
-122.75
11
353.75
21
-141.25
0
LINE
8
0
10
353.75
20
-122.25
11
372.25
21
-122.25
0
LINE
8
0
10
372.25
20
-122.25
11
372.25
21
-103.75
0
LINE
8
0
10
372.25
20
-103.75
11
353.75
21
-103.75
0
LINE
8
0
10
353.75
20
-103.75
11
353.75
21
-122.25
0
LINE
8
0
10
353.75
20
-103.25
11
372.25
21
-103.25
0
LINE
8
0
10
372.25
20
-103.25
11
372.25
21
-84.75
0
LINE
8
0
10
372.25
20
-84.75
11
353.75
21
-84.75
0
LINE
8
0
10
353.75
20
-84.75
11
353.75
21
-103.25
0
LINE
8
0
10
353.75
20
-84.25
11
372.25
21
-84.25
0
LINE
8
0
10
372.25
20
-84.25
11
372.25
21
-65.75
0
LINE
8
0
10
372.25
20
-65.75
11
353.75
21
-65.75
0
LINE
8
0
10
353.75
20
-65.75
11
353.75
21
-84.25
0
LINE
8
0
10
372.75
20
-84.25
11
391.25
21
-84.25
0
LINE
8
0
10
391.25
20
-84.25
11
391.25
21
-65.75
0
LINE
8
0
10
391.25
20
-65.75
11
372.75
21
-65.75
0
LINE
8
0
10
372.75
20
-65.75
11
372.75
21
-84.25
0
LINE
8
0
10
97.25
20
-179.25
11
115.75
21
-179.25
0
LINE
8
0
10
115.75
20
-179.25
11
115.75
21
-160.75
0
LINE
8
0
10
115.75
20
-160.75
11
97.25
21
-160.75
0
LINE
8
0
10
97.25
20
-160.75
11
97.25
21
-179.25
0
LINE
8
0
10
135.25
20
-179.25
11
153.75
21
-179.25
0
LINE
8
0
10
153.75
20
-179.25
11
153.75
21
-160.75
0
LINE
8
0
10
153.75
20
-160.75
11
135.25
21
-160.75
0
LINE
8
0
10
135.25
20
-160.75
11
135.25
21
-179.25
0
LINE
8
0
10
173.25
20
-179.25
11
191.75
21
-179.25
0
LINE
8
0
10
191.75
20
-179.25
11
191.75
21
-160.75
0
LINE
8
0
10
191.75
20
-160.75
11
173.25
21
-160.75
0
LINE
8
0
10
173.25
20
-160.75
11
173.25
21
-179.25
0
LINE
8
0
10
325.25
20
-160.25
11
343.75
21
-160.25
0
LINE
8
0
10
343.75
20
-160.25
11
343.75
21
-141.75
0
LINE
8
0
10
343.75
20
-141.75
11
325.25
21
-141.75
0
LINE
8
0
10
325.25
20
-141.75
11
325.25
21
-160.25
0
LINE
8
0
10
372.75
20
-112.75
11
391.25
21
-112.75
0
LINE
8
0
10
391.25
20
-112.75
11
391.25
21
-94.25
0
LINE
8
0
10
391.25
20
-94.25
11
372.75
21
-94.25
0
LINE
8
0
10
372.75
20
-94.25
11
372.75
21
-112.75
0
LINE
8
0
10
372.75
20
-150.75
11
391.25
21
-150.75
0
LINE
8
0
10
391.25
20
-150.75
11
391.25
21
-132.25
0
LINE
8
0
10
391.25
20
-132.25
11
372.75
21
-132.25
0
LINE
8
0
10
372.75
20
-132.25
11
372.75
21
-150.75
0
ENDSEC
0
EOF