0
SECTION
2
HEADER
9
$INSUNITS
70
4
0
ENDSEC
0
SECTION
2
TABLES
0
TABLE
2
LTYPE
0
LTYPE
72
65
70
64
2
CONTINUOUS
3
______
73
0
40
0
0
ENDTAB
0
TABLE
2
LAYER
0
ENDTAB
0
ENDSEC
0
SECTION
2
ENTITIES
0
LINE
8
0
10
30.25
20
-179.75
11
87.75
21
-179.75
0
LINE
8
0
10
30.25
20
-179.75
11
30.25
21
-65.25
0
LINE
8
0
10
30.25
20
-65.25
11
391.75
21
-65.25
0
LINE
8
0
10
87.75
20
-179.75
11
87.75
21
-160.75
0
LINE
8
0
10
87.75
20
-160.75
11
106.25
21
-160.75
0
LINE
8
0
10
125.75
20
-160.75
11
163.25
21
-160.75
0
LINE
8
0
10
182.75
20
-160.75
11
201.25
21
-160.75
0
LINE
8
0
10
201.25
20
-179.75
11
315.75
21
-179.75
0
LINE
8
0
10
201.25
20
-160.75
11
201.25
21
-179.75
0
LINE
8
0
10
277.75
20
-141.25
11
277.75
21
-132.25
0
LINE
8
0
10
277.75
20
-112.75
11
277.75
21
-103.75
0
LINE
8
0
10
296.25
20
-141.25
11
277.75
21
-141.25
0
LINE
8
0
10
277.75
20
-103.75
11
296.25
21
-103.75
0
LINE
8
0
10
315.75
20
-179.75
11
315.75
21
-160.75
0
LINE
8
0
10
296.25
20
-132.25
11
296.25
21
-141.25
0
LINE
8
0
10
296.25
20
-103.75
11
296.25
21
-112.75
0
LINE
8
0
10
315.75
20
-160.75
11
324.75
21
-160.75
0
LINE
8
0
10
344.25
20
-160.75
11
353.25
21
-160.75
0
LINE
8
0
10
353.25
20
-179.75
11
372.75
21
-179.75
0
LINE
8
0
10
372.75
20
-179.75
11
372.75
21
-170.25
0
LINE
8
0
10
353.25
20
-160.75
11
353.25
21
-179.75
0
LINE
8
0
10
372.75
20
-150.75
11
372.75
21
-132.25
0
LINE
8
0
10
372.75
20
-112.75
11
372.75
21
-103.75
0
LINE
8
0
10
372.75
20
-103.75
11
391.75
21
-103.75
0
LINE
8
0
10
391.75
20
-103.75
11
391.75
21
-65.25
0
LINE
8
0
10
106.25
20
-179.75
11
125.75
21
-179.75
0
LINE
8
0
10
125.75
20
-179.75
11
125.75
21
-160.75
0
LINE
8
0
10
106.25
20
-160.75
11
106.25
21
-179.75
0
LINE
8
0
10
163.25
20
-179.75
11
182.75
21
-179.75
0
LINE
8
0
10
182.75
20
-179.75
11
182.75
21
-160.75
0
LINE
8
0
10
163.25
20
-160.75
11
163.25
21
-179.75
0
LINE
8
0
10
277.75
20
-132.25
11
296.25
21
-132.25
0
LINE
8
0
10
296.25
20
-112.75
11
277.75
21
-112.75
0
LINE
8
0
10
324.75
20
-179.75
11
344.25
21
-179.75
0
LINE
8
0
10
344.25
20
-179.75
11
344.25
21
-160.75
0
LINE
8
0
10
324.75
20
-160.75
11
324.75
21
-179.75
0
LINE
8
0
10
372.75
20
-132.25
11
391.75
21
-132.25
0
LINE
8
0
10
391.75
20
-132.25
11
391.75
21
-112.75
0
LINE
8
0
10
391.75
20
-112.75
11
372.75
21
-112.75
0
LINE
8
0
10
372.75
20
-170.25
11
391.75
21
-170.25
0
LINE
8
0
10
391.75
20
-170.25
11
391.75
21
-150.75
0
LINE
8
0
10
391.75
20
-150.75
11
372.75
21
-150.75
0
ENDSEC
0
EOF