0
SECTION
2
HEADER
9
$INSUNITS
70
4
0
ENDSEC
0
SECTION
2
TABLES
0
TABLE
2
LTYPE
0
LTYPE
72
65
70
64
2
CONTINUOUS
3
______
73
0
40
0
0
ENDTAB
0
TABLE
2
LAYER
0
ENDTAB
0
ENDSEC
0
SECTION
2
ENTITIES
0
LINE
8
0
10
28.5
20
-181.5
11
89.5
21
-181.5
0
LINE
8
0
10
28.5
20
-181.5
11
28.5
21
-63.5
0
LINE
8
0
10
28.5
20
-63.5
11
393.5
21
-63.5
0
LINE
8
0
10
89.5
20
-181.5
11
89.5
21
-162.5
0
LINE
8
0
10
89.5
20
-162.5
11
104.5
21
-162.5
0
LINE
8
0
10
127.5
20
-162.5
11
161.5
21
-162.5
0
LINE
8
0
10
184.5
20
-162.5
11
199.5
21
-162.5
0
LINE
8
0
10
199.5
20
-181.5
11
317.5
21
-181.5
0
LINE
8
0
10
199.5
20
-162.5
11
199.5
21
-181.5
0
LINE
8
0
10
279.5
20
-139.5
11
279.5
21
-134
0
LINE
8
0
10
279.5
20
-111
11
279.5
21
-105.5
0
LINE
8
0
10
294.5
20
-139.5
11
279.5
21
-139.5
0
LINE
8
0
10
279.5
20
-105.5
11
294.5
21
-105.5
0
LINE
8
0
10
317.5
20
-181.5
11
317.5
21
-162.5
0
LINE
8
0
10
294.5
20
-134
11
294.5
21
-139.5
0
LINE
8
0
10
294.5
20
-105.5
11
294.5
21
-111
0
LINE
8
0
10
317.5
20
-162.5
11
323
21
-162.5
0
LINE
8
0
10
346
20
-162.5
11
351.5
21
-162.5
0
LINE
8
0
10
351.5
20
-181.5
11
374.5
21
-181.5
0
LINE
8
0
10
374.5
20
-181.5
11
374.5
21
-172
0
LINE
8
0
10
351.5
20
-162.5
11
351.5
21
-181.5
0
LINE
8
0
10
374.5
20
-149
11
374.5
21
-134
0
LINE
8
0
10
374.5
20
-111
11
374.5
21
-105.5
0
LINE
8
0
10
374.5
20
-105.5
11
393.5
21
-105.5
0
LINE
8
0
10
393.5
20
-105.5
11
393.5
21
-63.5
0
LINE
8
0
10
104.5
20
-181.5
11
127.5
21
-181.5
0
LINE
8
0
10
127.5
20
-181.5
11
127.5
21
-162.5
0
LINE
8
0
10
104.5
20
-162.5
11
104.5
21
-181.5
0
LINE
8
0
10
161.5
20
-181.5
11
184.5
21
-181.5
0
LINE
8
0
10
184.5
20
-181.5
11
184.5
21
-162.5
0
LINE
8
0
10
161.5
20
-162.5
11
161.5
21
-181.5
0
LINE
8
0
10
279.5
20
-134
11
294.5
21
-134
0
LINE
8
0
10
294.5
20
-111
11
279.5
21
-111
0
LINE
8
0
10
323
20
-181.5
11
346
21
-181.5
0
LINE
8
0
10
346
20
-181.5
11
346
21
-162.5
0
LINE
8
0
10
323
20
-162.5
11
323
21
-181.5
0
LINE
8
0
10
374.5
20
-134
11
393.5
21
-134
0
LINE
8
0
10
393.5
20
-134
11
393.5
21
-111
0
LINE
8
0
10
393.5
20
-111
11
374.5
21
-111
0
LINE
8
0
10
374.5
20
-172
11
393.5
21
-172
0
LINE
8
0
10
393.5
20
-172
11
393.5
21
-149
0
LINE
8
0
10
393.5
20
-149
11
374.5
21
-149
0
ENDSEC
0
EOF