0
SECTION
2
HEADER
9
$INSUNITS
70
4
0
ENDSEC
0
SECTION
2
TABLES
0
TABLE
2
LTYPE
0
LTYPE
72
65
70
64
2
CONTINUOUS
3
______
73
0
40
0
0
ENDTAB
0
TABLE
2
LAYER
0
ENDTAB
0
ENDSEC
0
SECTION
2
ENTITIES
0
LINE
8
0
10
30
20
-180
11
88
21
-180
0
LINE
8
0
10
30
20
-180
11
30
21
-65
0
LINE
8
0
10
30
20
-65
11
392
21
-65
0
LINE
8
0
10
88
20
-180
11
88
21
-161
0
LINE
8
0
10
88
20
-161
11
96.5
21
-161
0
LINE
8
0
10
116.5
20
-161
11
134.5
21
-161
0
LINE
8
0
10
154.5
20
-161
11
172.5
21
-161
0
LINE
8
0
10
192.5
20
-161
11
201
21
-161
0
LINE
8
0
10
201
20
-180
11
316
21
-180
0
LINE
8
0
10
201
20
-161
11
201
21
-180
0
LINE
8
0
10
316
20
-180
11
316
21
-142
0
LINE
8
0
10
316
20
-142
11
324.5
21
-142
0
LINE
8
0
10
344.5
20
-142
11
353
21
-142
0
LINE
8
0
10
353
20
-161
11
373
21
-161
0
LINE
8
0
10
373
20
-161
11
373
21
-151.5
0
LINE
8
0
10
353
20
-142
11
353
21
-161
0
LINE
8
0
10
373
20
-131.5
11
373
21
-113.5
0
LINE
8
0
10
373
20
-93.5
11
373
21
-85
0
LINE
8
0
10
373
20
-85
11
392
21
-85
0
LINE
8
0
10
392
20
-85
11
392
21
-65
0
LINE
8
0
10
96.5
20
-180
11
116.5
21
-180
0
LINE
8
0
10
116.5
20
-180
11
116.5
21
-161
0
LINE
8
0
10
96.5
20
-161
11
96.5
21
-180
0
LINE
8
0
10
134.5
20
-180
11
154.5
21
-180
0
LINE
8
0
10
154.5
20
-180
11
154.5
21
-161
0
LINE
8
0
10
134.5
20
-161
11
134.5
21
-180
0
LINE
8
0
10
172.5
20
-180
11
192.5
21
-180
0
LINE
8
0
10
192.5
20
-180
11
192.5
21
-161
0
LINE
8
0
10
172.5
20
-161
11
172.5
21
-180
0
LINE
8
0
10
324.5
20
-161
11
344.5
21
-161
0
LINE
8
0
10
344.5
20
-161
11
344.5
21
-142
0
LINE
8
0
10
324.5
20
-142
11
324.5
21
-161
0
LINE
8
0
10
373
20
-113.5
11
392
21
-113.5
0
LINE
8
0
10
392
20
-113.5
11
392
21
-93.5
0
LINE
8
0
10
392
20
-93.5
11
373
21
-93.5
0
LINE
8
0
10
373
20
-151.5
11
392
21
-151.5
0
LINE
8
0
10
392
20
-151.5
11
392
21
-131.5
0
LINE
8
0
10
392
20
-131.5
11
373
21
-131.5
0
ENDSEC
0
EOF