0
SECTION
2
HEADER
9
$INSUNITS
70
4
0
ENDSEC
0
SECTION
2
TABLES
0
TABLE
2
LTYPE
0
LTYPE
72
65
70
64
2
CONTINUOUS
3
______
73
0
40
0
0
ENDTAB
0
TABLE
2
LAYER
0
ENDTAB
0
ENDSEC
0
SECTION
2
ENTITIES
0
LINE
8
0
10
28
20
-182
11
90
21
-182
0
LINE
8
0
10
28
20
-182
11
28
21
-63
0
LINE
8
0
10
28
20
-63
11
394
21
-63
0
LINE
8
0
10
90
20
-182
11
90
21
-163
0
LINE
8
0
10
90
20
-163
11
104
21
-163
0
LINE
8
0
10
128
20
-163
11
161
21
-163
0
LINE
8
0
10
185
20
-163
11
199
21
-163
0
LINE
8
0
10
199
20
-182
11
318
21
-182
0
LINE
8
0
10
199
20
-163
11
199
21
-182
0
LINE
8
0
10
280
20
-139
11
280
21
-134.5
0
LINE
8
0
10
280
20
-110.5
11
280
21
-106
0
LINE
8
0
10
294
20
-139
11
280
21
-139
0
LINE
8
0
10
280
20
-106
11
294
21
-106
0
LINE
8
0
10
318
20
-182
11
318
21
-163
0
LINE
8
0
10
294
20
-134.5
11
294
21
-139
0
LINE
8
0
10
294
20
-106
11
294
21
-110.5
0
LINE
8
0
10
318
20
-163
11
322.5
21
-163
0
LINE
8
0
10
346.5
20
-163
11
351
21
-163
0
LINE
8
0
10
351
20
-182
11
375
21
-182
0
LINE
8
0
10
375
20
-182
11
375
21
-172.5
0
LINE
8
0
10
351
20
-163
11
351
21
-182
0
LINE
8
0
10
375
20
-148.5
11
375
21
-134.5
0
LINE
8
0
10
375
20
-110.5
11
375
21
-106
0
LINE
8
0
10
375
20
-106
11
394
21
-106
0
LINE
8
0
10
394
20
-106
11
394
21
-63
0
LINE
8
0
10
104
20
-182
11
128
21
-182
0
LINE
8
0
10
128
20
-182
11
128
21
-163
0
LINE
8
0
10
104
20
-163
11
104
21
-182
0
LINE
8
0
10
161
20
-182
11
185
21
-182
0
LINE
8
0
10
185
20
-182
11
185
21
-163
0
LINE
8
0
10
161
20
-163
11
161
21
-182
0
LINE
8
0
10
280
20
-134.5
11
294
21
-134.5
0
LINE
8
0
10
294
20
-110.5
11
280
21
-110.5
0
LINE
8
0
10
322.5
20
-182
11
346.5
21
-182
0
LINE
8
0
10
346.5
20
-182
11
346.5
21
-163
0
LINE
8
0
10
322.5
20
-163
11
322.5
21
-182
0
LINE
8
0
10
375
20
-134.5
11
394
21
-134.5
0
LINE
8
0
10
394
20
-134.5
11
394
21
-110.5
0
LINE
8
0
10
394
20
-110.5
11
375
21
-110.5
0
LINE
8
0
10
375
20
-172.5
11
394
21
-172.5
0
LINE
8
0
10
394
20
-172.5
11
394
21
-148.5
0
LINE
8
0
10
394
20
-148.5
11
375
21
-148.5
0
ENDSEC
0
EOF